<mxfile host="app.diagrams.net" modified="2023-08-20T05:18:04.199Z" agent="Mozilla/5.0 (Windows NT 10.0; Win64; x64) AppleWebKit/537.36 (KHTML, like Gecko) Chrome/116.0.0.0 Safari/537.36" version="21.6.8" etag="yfO6nJR6-K9HEnIBKtKt" type="github">
  <diagram name="Page-1" id="lwee_DpMBSLP7jrXsPZq">
    <mxGraphModel>
      <root>
        <mxCell id="0" />
        <mxCell id="1" parent="0" />
      </root>
    </mxGraphModel>
  </diagram>
</mxfile>
